<svg width="418" height="86" viewBox="0 0 418 86" fill="none" xmlns="http://www.w3.org/2000/svg">
<path d="M13.8805 66.2271C9.87213 66.2271 6.62271 62.9777 6.62271 58.9694V31.0269C6.62271 23.0102 13.1215 16.5114 21.1383 16.5114V58.9694C21.1383 62.9777 17.8888 66.2271 13.8805 66.2271ZM5.3526 27.2166C2.39644 27.2166 0 24.8202 0 21.864C0 18.9079 2.39644 16.5114 5.35261 16.5114H21.1383V16.6475C21.1383 22.4847 16.4063 27.2166 10.5691 27.2166H5.3526Z" fill="white"/>
<path d="M41.8215 84.3716C37.8131 84.3716 34.5637 81.1222 34.5637 77.1138V22.2723C34.5637 19.0906 37.1429 16.5114 40.3246 16.5114C43.5062 16.5114 46.0854 19.0906 46.0854 22.2723V37.2135C46.0854 37.647 45.7205 37.9911 45.2878 37.9656C44.8753 37.9414 44.5586 37.5889 44.5858 37.1766C44.8909 32.543 45.9049 28.6181 47.6277 25.4022C49.4421 21.9547 51.8916 19.3843 54.9762 17.6908C58.0607 15.9369 61.5384 15.0599 65.4092 15.0599C68.8567 15.0599 71.9715 15.6949 74.7536 16.965C77.5962 18.2351 80.0155 20.0193 82.0114 22.3176C84.0677 24.5555 85.61 27.2166 86.6382 30.3012C87.7269 33.3253 88.2712 36.6517 88.2712 40.2806V42.3672C88.2712 45.9356 87.7571 49.2924 86.7289 52.4374C85.7007 55.5219 84.1887 58.2134 82.1928 60.5117C80.2574 62.8099 77.8684 64.6244 75.0258 65.955C72.2436 67.2251 69.0381 67.8601 65.4092 67.8601C61.6594 67.8601 58.2724 67.1041 55.2483 65.5921C52.2848 64.0196 49.8957 61.6608 48.0813 58.5158C47.0807 56.7481 46.3285 54.723 45.8245 52.4404C45.4244 50.6284 47.6174 49.8089 48.7147 51.3052C48.9515 51.6282 49.0792 52.0183 49.0792 52.4188V77.1138C49.0792 81.1221 45.8298 84.3716 41.8215 84.3716ZM61.3267 55.7034C63.8065 55.7034 65.9535 55.0986 67.768 53.8889C69.6429 52.6793 71.0945 50.9858 72.1227 48.8085C73.1508 46.6312 73.6649 44.1212 73.6649 41.2786C73.6649 38.4359 73.1508 35.9562 72.1227 33.8393C71.0945 31.7225 69.6732 30.0895 67.8587 28.9404C66.0443 27.7307 63.8669 27.1259 61.3267 27.1259C59.1494 27.1259 57.093 27.64 55.1576 28.6682C53.2222 29.6964 51.6497 31.1782 50.4401 33.1136C49.2909 34.9885 48.7164 37.2868 48.7164 40.0085V43.3652C48.7164 45.9659 49.3212 48.2037 50.5308 50.0786C51.8009 51.893 53.4037 53.2841 55.3391 54.2518C57.2745 55.2195 59.2704 55.7034 61.3267 55.7034Z" fill="white"/>
<path d="M121.124 67.9509C116.89 67.9509 113.14 67.2251 109.874 65.7735C106.669 64.322 103.977 62.3866 101.8 59.9673C99.6833 57.4876 98.0503 54.7357 96.9011 51.7116C95.8125 48.627 95.2681 45.482 95.2681 42.2765V40.4621C95.2681 37.1356 95.8125 33.9603 96.9011 30.9362C98.0503 27.8517 99.6833 25.0998 101.8 22.6805C103.917 20.2613 106.548 18.3561 109.693 16.965C112.898 15.5135 116.527 14.7877 120.58 14.7877C125.902 14.7877 130.378 15.9973 134.006 18.4166C137.696 20.7754 140.508 23.8902 142.444 27.761C144.379 31.5713 145.347 35.7445 145.347 40.2806C145.347 42.9863 143.153 45.1796 140.448 45.1796H105.474C103.195 45.1796 101.347 43.3315 101.347 41.0518C101.347 38.772 103.195 36.9239 105.474 36.9239H133.061C134.223 36.9239 134.739 38.3842 133.835 39.1141C133.029 39.7648 131.81 39.1901 131.713 38.1591C131.534 36.2714 131.149 34.5896 130.559 33.1136C129.712 30.9967 128.442 29.394 126.749 28.3053C125.116 27.1562 123.059 26.5816 120.58 26.5816C118.039 26.5816 115.892 27.1562 114.138 28.3053C112.384 29.4544 111.054 31.1479 110.147 33.3857C109.239 35.5631 108.786 38.2545 108.786 41.46C108.786 44.4236 109.209 47.0243 110.056 49.2621C110.903 51.4394 112.233 53.1329 114.048 54.3425C115.862 55.5522 118.221 56.157 121.124 56.157C123.785 56.157 125.962 55.6429 127.656 54.6147C127.808 54.5224 127.956 54.4282 128.099 54.332C130.458 52.7476 132.967 50.8044 135.809 50.8044C140.245 50.8044 143.563 55.0394 140.979 58.6446C140.723 59.0011 140.455 59.3513 140.176 59.6951C138.059 62.2959 135.398 64.322 132.192 65.7735C128.987 67.2251 125.297 67.9509 121.124 67.9509Z" fill="white"/>
<path d="M193.527 66.2271C191.312 66.2271 189.241 65.1273 188 63.2918L175.103 44.2064C174.594 43.4535 173.745 43.0023 172.836 43.0023C170.57 43.0023 169.286 40.4061 170.661 38.6055L185.726 18.8793C186.866 17.387 188.636 16.5114 190.514 16.5114C195.517 16.5114 198.34 22.257 195.283 26.2172L185.893 38.3792C185.207 39.2669 183.787 38.7618 183.815 37.6407C183.844 36.5214 185.285 36.0885 185.926 37.0067L198.997 55.7404C202.082 60.162 198.919 66.2271 193.527 66.2271ZM162.223 66.2271C158.215 66.2271 154.965 62.9777 154.965 58.9694V7.25777C154.965 3.24941 158.215 0 162.223 0C166.232 0 169.481 3.24941 169.481 7.25777V58.9694C169.481 62.9777 166.232 66.2271 162.223 66.2271Z" fill="white"/>
<path d="M237.58 85.9138C234.173 85.9138 231.411 83.1518 231.411 79.7447C231.411 76.3376 234.173 73.5756 237.58 73.5756H241.753C243.326 73.5756 244.656 73.3639 245.745 72.9406C246.834 72.5777 247.711 71.9426 248.376 71.0354C249.041 70.1282 249.585 68.8883 250.009 67.3158L261.032 21.5901C261.75 18.6108 264.416 16.5114 267.481 16.5114C271.818 16.5114 274.988 20.6053 273.903 24.8045L262.166 70.2189C261.198 74.0897 259.837 77.1743 258.083 79.4726C256.39 81.7709 254.091 83.4039 251.188 84.3716C248.346 85.3997 244.717 85.9138 240.302 85.9138H237.58ZM252.277 65.1385C249.371 65.1385 247.015 62.7826 247.015 59.8766V59.0601C247.015 56.154 249.371 53.7982 252.277 53.7982C255.183 53.7982 257.539 56.154 257.539 59.0601V59.8766C257.539 62.7827 255.183 65.1385 252.277 65.1385ZM245.911 65.1385C243.005 65.1385 240.436 63.2514 239.567 60.4787L228.608 25.5135C227.209 21.0502 230.543 16.5114 235.22 16.5114C238.288 16.5114 240.991 18.5289 241.863 21.4702L252.284 56.5998C253.548 60.861 250.355 65.1385 245.911 65.1385Z" fill="white"/>
<path d="M306.766 67.9509C302.412 67.9509 298.541 67.2856 295.154 65.955C291.767 64.5639 288.894 62.689 286.535 60.3302C284.237 57.9714 282.483 55.28 281.273 52.2559C280.064 49.1714 279.459 45.9356 279.459 42.5487V40.4621C279.459 37.0146 280.064 33.7486 281.273 30.6641C282.543 27.519 284.358 24.7671 286.717 22.4084C289.136 20.0496 292.039 18.2049 295.426 16.8743C298.813 15.4832 302.593 14.7877 306.766 14.7877C311.06 14.7877 314.871 15.4832 318.197 16.8743C321.584 18.2049 324.457 20.0496 326.816 22.4084C329.175 24.7671 330.989 27.519 332.259 30.6641C333.529 33.7486 334.164 37.0146 334.164 40.4621V42.5487C334.164 45.9356 333.559 49.1714 332.35 52.2559C331.14 55.28 329.356 57.9714 326.997 60.3302C324.699 62.689 321.856 64.5639 318.469 65.955C315.082 67.2856 311.181 67.9509 306.766 67.9509ZM306.766 55.7034C309.609 55.7034 311.968 55.0986 313.842 53.8889C315.717 52.6793 317.139 50.9858 318.106 48.8085C319.135 46.6312 319.649 44.2119 319.649 41.5507C319.649 38.7081 319.135 36.2284 318.106 34.1115C317.078 31.9342 315.596 30.2105 313.661 28.9404C311.786 27.6702 309.488 27.0352 306.766 27.0352C304.105 27.0352 301.807 27.6702 299.871 28.9404C297.936 30.2105 296.454 31.9342 295.426 34.1115C294.458 36.2284 293.974 38.7081 293.974 41.5507C293.974 44.2119 294.458 46.6312 295.426 48.8085C296.394 50.9858 297.845 52.6793 299.781 53.8889C301.716 55.0986 304.045 55.7034 306.766 55.7034Z" fill="white"/>
<path d="M352.233 66.2271C348.199 66.2271 344.93 62.9574 344.93 58.924V14.6063C344.93 6.53945 351.469 0 359.536 0V58.924C359.536 62.9574 356.266 66.2271 352.233 66.2271ZM344.385 10.7052C341.429 10.7052 339.033 8.30876 339.033 5.3526C339.033 2.39644 341.429 0 344.385 0H359.536V0.453611C359.536 6.11541 354.946 10.7052 349.284 10.7052H344.385Z" fill="white"/>
<path d="M389.695 67.7694C383.949 67.7694 379.534 65.9247 376.449 62.2354C373.365 58.4855 371.822 52.8607 371.822 45.3611V23.7692C371.822 19.7608 375.072 16.5114 379.08 16.5114C383.089 16.5114 386.338 19.7608 386.338 23.7692V46.0868C386.338 48.748 387.094 50.8649 388.606 52.4374C390.118 54.0099 392.144 54.7962 394.684 54.7962C397.285 54.7962 399.402 53.9797 401.035 52.3467C402.668 50.7137 403.484 48.5061 403.484 45.7239V23.7692C403.484 19.7608 406.734 16.5114 410.742 16.5114C414.751 16.5114 418 19.7608 418 23.7692V60.4663C418 63.6479 415.421 66.2271 412.239 66.2271C409.057 66.2271 406.478 63.6479 406.478 60.4663V45.7693C406.478 45.4937 406.702 45.2703 406.977 45.2703C407.253 45.2703 407.476 45.4939 407.474 45.7694C407.431 50.5695 406.767 54.6066 405.48 57.8807C404.21 61.2072 402.305 63.6869 399.765 65.3199C397.225 66.9529 394.08 67.7694 390.33 67.7694H389.695Z" fill="white"/>
</svg>
