<svg width="360" height="70" viewBox="0 0 360 70" fill="none" xmlns="http://www.w3.org/2000/svg">
<path d="M22.5249 56.0504C18.9329 56.0504 15.74 55.5016 12.9462 54.4041C10.1524 53.2566 7.7827 51.71 5.83702 49.7644C3.94124 47.8187 2.49445 45.5986 1.49667 43.1042C0.498891 40.5598 0 37.8908 0 35.097V33.3758C0 30.5321 0.498891 27.8381 1.49667 25.2938C2.54434 22.6995 4.04102 20.4296 5.98669 18.4839C7.98225 16.5382 10.3769 15.0166 13.1707 13.9191C15.9645 12.7716 19.0826 12.1979 22.5249 12.1979C26.067 12.1979 29.2101 12.7716 31.954 13.9191C34.7477 15.0166 37.1175 16.5382 39.0632 18.4839C41.0088 20.4296 42.5055 22.6995 43.5532 25.2938C44.6008 27.8381 45.1247 30.5321 45.1247 33.3758V35.097C45.1247 37.8908 44.6258 40.5598 43.628 43.1042C42.6302 45.5986 41.1585 47.8187 39.2128 49.7644C37.317 51.71 34.9722 53.2566 32.1785 54.4041C29.3847 55.5016 26.1668 56.0504 22.5249 56.0504ZM22.5249 45.9479C24.8697 45.9479 26.8154 45.449 28.3619 44.4512C29.9085 43.4534 31.0809 42.0565 31.8791 40.2605C32.7272 38.4645 33.1513 36.4689 33.1513 34.2738C33.1513 31.929 32.7272 29.8836 31.8791 28.1374C31.031 26.3414 29.8087 24.9196 28.2123 23.8719C26.6657 22.8243 24.7699 22.3004 22.5249 22.3004C20.3298 22.3004 18.434 22.8243 16.8376 23.8719C15.2411 24.9196 14.0188 26.3414 13.1707 28.1374C12.3725 29.8836 11.9734 31.929 11.9734 34.2738C11.9734 36.4689 12.3725 38.4645 13.1707 40.2605C13.9689 42.0565 15.1663 43.4534 16.7627 44.4512C18.3592 45.449 20.2799 45.9479 22.5249 45.9479Z" fill="white"/>
<path d="M58.7193 69.5953C55.4129 69.5953 52.7326 66.915 52.7326 63.6086V18.3717C52.7326 15.7472 54.8601 13.6197 57.4845 13.6197C60.1089 13.6197 62.2364 15.7472 62.2364 18.3717V30.6962C62.2364 31.0538 61.9354 31.3376 61.5785 31.3166C61.2383 31.2966 60.9771 31.0058 60.9995 30.6658C61.2511 26.8436 62.0875 23.6061 63.5086 20.9534C65.0053 18.1097 67.0258 15.9895 69.5701 14.5926C72.1145 13.1458 74.9831 12.4224 78.176 12.4224C81.0197 12.4224 83.589 12.9462 85.8839 13.9939C88.2287 15.0416 90.2242 16.5133 91.8706 18.4091C93.5668 20.255 94.839 22.4501 95.6871 24.9944C96.5851 27.4889 97.0341 30.2328 97.0341 33.2261V34.9473C97.0341 37.8908 96.61 40.6596 95.7619 43.2538C94.9138 45.7982 93.6666 48.0182 92.0202 49.914C90.4238 51.8098 88.4532 53.3065 86.1084 54.4041C83.8135 55.4517 81.1693 55.9756 78.176 55.9756C75.0829 55.9756 72.2891 55.3519 69.7946 54.1047C67.3501 52.8076 65.3795 50.8619 63.8828 48.2677C63.0575 46.8096 62.4369 45.1392 62.0212 43.2563C61.6912 41.7617 63.5001 41.0857 64.4052 42.32C64.6006 42.5864 64.7059 42.9081 64.7059 43.2385V63.6086C64.7059 66.915 62.0256 69.5953 58.7193 69.5953ZM74.8085 45.9479C76.8539 45.9479 78.625 45.449 80.1217 44.4512C81.6682 43.4534 82.8656 42.0565 83.7137 40.2605C84.5618 38.4645 84.9859 36.3941 84.9859 34.0493C84.9859 31.7045 84.5618 29.6591 83.7137 27.9129C82.8656 26.1668 81.6932 24.8198 80.1965 23.8719C78.6998 22.8741 76.9038 22.3753 74.8085 22.3753C73.0125 22.3753 71.3163 22.7993 69.7198 23.6474C68.1233 24.4955 66.8262 25.7178 65.8285 27.3143C64.8806 28.8608 64.4066 30.7566 64.4066 33.0016V35.7705C64.4066 37.9157 64.9055 39.7616 65.9033 41.3082C66.951 42.8048 68.273 43.9523 69.8695 44.7505C71.4659 45.5487 73.1123 45.9479 74.8085 45.9479Z" fill="white"/>
<path d="M123.235 55.1524C119.094 55.1524 115.752 54.6535 113.207 53.6557C110.663 52.608 108.792 50.8869 107.595 48.4922C106.448 46.0476 105.874 42.7549 105.874 38.6142V8.11945C105.874 5.0404 108.37 2.54434 111.449 2.54434C114.528 2.54434 117.024 5.0404 117.024 8.11945V39.0632C117.024 41.0088 117.523 42.5055 118.521 43.5532C119.568 44.551 121.04 45.0498 122.936 45.0498H123.946C126.736 45.0498 128.997 47.3114 128.997 50.1011C128.997 52.8909 126.736 55.1524 123.946 55.1524H123.235ZM104.04 22.3753C101.623 22.3753 99.6626 20.4153 99.6626 17.9975C99.6626 15.5797 101.623 13.6197 104.04 13.6197H124.62C127.037 13.6197 128.997 15.5797 128.997 17.9975C128.997 20.4153 127.037 22.3753 124.62 22.3753H104.04Z" fill="white"/>
<path d="M156.135 56.0504C152.543 56.0504 149.35 55.5016 146.556 54.4041C143.763 53.2566 141.393 51.71 139.447 49.7644C137.551 47.8187 136.105 45.5986 135.107 43.1042C134.109 40.5598 133.61 37.8908 133.61 35.097V33.3758C133.61 30.5321 134.109 27.8381 135.107 25.2938C136.155 22.6995 137.651 20.4296 139.597 18.4839C141.592 16.5382 143.987 15.0166 146.781 13.9191C149.575 12.7716 152.693 12.1979 156.135 12.1979C159.677 12.1979 162.82 12.7716 165.564 13.9191C168.358 15.0166 170.728 16.5382 172.673 18.4839C174.619 20.4296 176.116 22.6995 177.163 25.2938C178.211 27.8381 178.735 30.5321 178.735 33.3758V35.097C178.735 37.8908 178.236 40.5598 177.238 43.1042C176.24 45.5986 174.769 47.8187 172.823 49.7644C170.927 51.71 168.582 53.2566 165.789 54.4041C162.995 55.5016 159.777 56.0504 156.135 56.0504ZM156.135 45.9479C158.48 45.9479 160.426 45.449 161.972 44.4512C163.519 43.4534 164.691 42.0565 165.489 40.2605C166.337 38.4645 166.761 36.4689 166.761 34.2738C166.761 31.929 166.337 29.8836 165.489 28.1374C164.641 26.3414 163.419 24.9196 161.822 23.8719C160.276 22.8243 158.38 22.3004 156.135 22.3004C153.94 22.3004 152.044 22.8243 150.448 23.8719C148.851 24.9196 147.629 26.3414 146.781 28.1374C145.983 29.8836 145.584 31.929 145.584 34.2738C145.584 36.4689 145.983 38.4645 146.781 40.2605C147.579 42.0565 148.776 43.4534 150.373 44.4512C151.969 45.449 153.89 45.9479 156.135 45.9479Z" fill="white"/>
<path d="M204.752 56.0504C201.21 56.0504 198.117 55.4767 195.472 54.3292C192.878 53.1319 190.708 51.5354 188.962 49.5399C187.216 47.5443 185.919 45.2993 185.071 42.8048C184.222 40.2605 183.798 37.6413 183.798 34.9473V33.5255C183.798 30.7317 184.247 28.0626 185.145 25.5183C186.043 22.924 187.365 20.6291 189.112 18.6336C190.858 16.638 193.028 15.0665 195.622 13.9191C198.266 12.7716 201.285 12.1979 204.677 12.1979C208.369 12.1979 211.637 12.9213 214.48 14.3681C217.324 15.7649 219.594 17.7356 221.29 20.2799C221.838 21.1023 222.308 21.9638 222.7 22.8643C224.078 26.0304 221.155 29.0355 217.703 29.0355C214.707 29.0355 212.299 26.4719 210.14 24.3958C208.893 23.0986 207.072 22.4501 204.677 22.4501C202.681 22.4501 201.01 22.949 199.663 23.9468C198.366 24.9445 197.393 26.3165 196.745 28.0626C196.096 29.8087 195.772 31.8791 195.772 34.2738C195.772 36.4689 196.071 38.4645 196.67 40.2605C197.268 42.0066 198.216 43.3786 199.513 44.3763C200.86 45.3242 202.607 45.7982 204.752 45.7982C206.348 45.7982 207.695 45.5238 208.793 44.975C209.94 44.3763 210.838 43.5781 211.487 42.5803C212.702 40.7577 214.416 38.9883 216.607 38.9883H218.145C221.572 38.9883 224.436 41.94 223.126 45.1067C222.711 46.1092 222.199 47.0631 221.589 47.9684C219.843 50.5127 217.523 52.5083 214.63 53.955C211.736 55.3519 208.444 56.0504 204.752 56.0504Z" fill="white"/>
<path d="M237.329 54.6286C234.023 54.6286 231.342 51.9482 231.342 48.6419V5.98668C231.342 2.68033 234.023 0 237.329 0C240.635 0 243.316 2.68033 243.316 5.98668V30.607C243.316 31.1029 242.914 31.505 242.418 31.505C241.922 31.505 241.519 31.1025 241.528 30.6066C241.599 26.8567 242.12 23.6639 243.091 21.0283C244.139 18.1846 245.685 16.0393 247.731 14.5926C249.776 13.0959 252.346 12.3476 255.439 12.3476H255.963C260.502 12.3476 263.97 13.9689 266.364 17.2117C268.759 20.4046 269.956 25.0942 269.956 31.2805V48.6419C269.956 51.9482 267.276 54.6286 263.97 54.6286C260.663 54.6286 257.983 51.9482 257.983 48.6419V30.5321C257.983 28.2871 257.31 26.4911 255.963 25.1441C254.665 23.7472 252.944 23.0488 250.799 23.0488C248.554 23.0488 246.733 23.7721 245.336 25.2189C243.989 26.6657 243.316 28.5864 243.316 30.9811V48.6419C243.316 51.9482 240.635 54.6286 237.329 54.6286Z" fill="white"/>
<path d="M311.219 54.6286C309.392 54.6286 307.684 53.7213 306.661 52.2073L296.022 36.4644C295.602 35.8433 294.902 35.4711 294.152 35.4711C292.283 35.4711 291.224 33.3297 292.358 31.8444L304.785 15.5729C305.725 14.3419 307.185 13.6197 308.734 13.6197C312.861 13.6197 315.189 18.3591 312.667 21.6257L304.922 31.6577C304.357 32.3899 303.185 31.9733 303.209 31.0485C303.232 30.1252 304.421 29.7682 304.95 30.5256L315.731 45.9783C318.276 49.6256 315.667 54.6286 311.219 54.6286ZM285.398 54.6286C282.092 54.6286 279.411 51.9482 279.411 48.6419V5.98668C279.411 2.68033 282.092 0 285.398 0C288.704 0 291.385 2.68033 291.385 5.98668V48.6419C291.385 51.9482 288.704 54.6286 285.398 54.6286Z" fill="white"/>
<path d="M355.248 54.6286C352.624 54.6286 350.496 52.501 350.496 49.8766V43.5158C350.496 42.9578 350.044 42.5055 349.486 42.5055C348.928 42.5055 348.476 42.0532 348.476 41.4953V29.3348C348.476 27.2394 347.977 25.6679 346.979 24.6203C345.981 23.5726 344.385 23.0488 342.19 23.0488C341.092 23.0488 339.645 23.0737 337.849 23.1236C336.053 23.1735 334.207 23.2483 332.312 23.3481C329.514 23.4953 327.148 21.2762 327.148 18.4752V17.5971C327.148 15.3045 328.901 13.3932 331.189 13.2456C332.736 13.1458 334.332 13.0709 335.978 13.021C337.625 12.9712 339.171 12.9462 340.618 12.9462C344.809 12.9462 348.326 13.5449 351.17 14.7422C354.063 15.9396 356.258 17.7605 357.755 20.2051C359.252 22.5998 360 25.6929 360 29.4845V49.8766C360 52.501 357.873 54.6286 355.248 54.6286ZM337.4 55.6762C334.457 55.6762 331.863 55.1524 329.618 54.1047C327.422 53.057 325.701 51.5604 324.454 49.6147C323.207 47.6191 322.583 45.2494 322.583 42.5055C322.583 39.5122 323.357 37.0676 324.903 35.1718C326.45 33.2261 328.62 31.8043 331.414 30.9063C334.207 29.9584 337.425 29.4845 341.067 29.4845H346.493C348.332 29.4845 349.823 30.9754 349.823 32.8145C349.823 34.6537 348.332 36.1446 346.493 36.1446H340.992C338.897 36.1446 337.276 36.6685 336.128 37.7162C335.031 38.7139 334.482 40.0859 334.482 41.832C334.482 43.4783 335.031 44.8253 336.128 45.873C337.276 46.8708 338.897 47.3697 340.992 47.3697C342.339 47.3697 343.537 47.1452 344.584 46.6962C345.682 46.1973 346.58 45.3741 347.278 44.2267C347.525 43.8209 347.735 43.359 347.907 42.841C348.318 41.6047 349.962 41.0021 350.859 41.9466C351.152 42.2544 351.301 42.6735 351.252 43.0952C350.957 45.6493 350.281 47.8225 349.224 49.6147C348.126 51.5604 346.58 53.057 344.584 54.1047C342.639 55.1524 340.244 55.6762 337.4 55.6762Z" fill="white"/>
</svg>
