<svg width="54" height="13" viewBox="0 0 54 13" fill="none" xmlns="http://www.w3.org/2000/svg">
<path d="M48.8205 5.47911C42.9119 9.84343 34.3269 12.1602 26.9455 12.1602C16.6005 12.1602 7.27952 8.3347 0.23928 1.9769C-0.317515 1.47413 0.185253 0.791695 0.849679 1.18662C8.46472 5.60496 17.8578 8.28089 27.5741 8.28089C34.1294 8.28089 41.3313 6.91602 47.9586 4.11424C48.9463 3.66508 49.7904 4.76087 48.8205 5.47911ZM51.2812 2.67734C50.5269 1.70761 46.2882 2.21038 44.3666 2.44386C43.7918 2.5159 43.7019 2.01291 44.2229 1.63579C47.5993 -0.735043 53.149 -0.0523965 53.7954 0.737668C54.442 1.54595 53.6158 7.09547 50.4549 9.7536C49.9701 10.1667 49.5031 9.95127 49.7186 9.41249C50.4369 7.63426 52.0354 3.62927 51.2812 2.67734Z" fill="#FF9900"/>
</svg>
