<svg width="49" height="17" viewBox="0 0 49 17" fill="none" xmlns="http://www.w3.org/2000/svg">
<path d="M12.8451 11.6014C12.8451 12.2589 12.9163 12.7918 13.0406 13.1827C13.1984 13.6225 13.3884 14.05 13.609 14.4618C13.6979 14.6039 13.7333 14.746 13.7333 14.8705C13.7333 15.0481 13.6268 15.2258 13.3959 15.4035L12.2767 16.1497C12.1168 16.2563 11.9568 16.3096 11.8145 16.3096C11.637 16.3096 11.4593 16.2207 11.2815 16.0608C11.0422 15.8035 10.8281 15.5239 10.6421 15.2258C10.4644 14.924 10.2866 14.5861 10.0913 14.1776C8.70549 15.812 6.96422 16.6294 4.86791 16.6294C3.37564 16.6294 2.18517 16.2029 1.31454 15.3503C0.444119 14.4973 0 13.3602 0 11.939C0 10.4289 0.532985 9.20305 1.61677 8.27918C2.70034 7.35531 4.13959 6.89338 5.96951 6.89338C6.57355 6.89338 7.1954 6.94662 7.85267 7.03548C8.51015 7.12435 9.18523 7.26645 9.89595 7.42636V6.12943C9.89595 4.77905 9.61154 3.83757 9.06074 3.28677C8.49233 2.73597 7.53284 2.46938 6.16485 2.46938C5.543 2.46938 4.90354 2.54064 4.24606 2.70055C3.58879 2.86026 2.94913 3.05581 2.32728 3.30459C2.04307 3.42887 1.82992 3.49993 1.70543 3.53556C1.58114 3.57119 1.49227 3.58879 1.42122 3.58879C1.17244 3.58879 1.04815 3.41106 1.04815 3.03799V2.16736C1.04815 1.88316 1.08378 1.67 1.17244 1.54572C1.26131 1.42122 1.42122 1.29694 1.67 1.17265C2.29185 0.852817 3.03799 0.58622 3.90841 0.373068C4.77926 0.142101 5.70312 0.0356301 6.68023 0.0356301C8.79456 0.0356301 10.3403 0.515169 11.3352 1.47467C12.3123 2.43396 12.8099 3.89081 12.8099 5.84523V11.6014H12.8455H12.8451ZM5.63186 14.3019C6.21829 14.3019 6.82233 14.1955 7.46179 13.9821C8.10145 13.7689 8.67006 13.3781 9.1496 12.8451C9.43402 12.5076 9.64717 12.1346 9.75364 11.7081C9.86032 11.2818 9.93137 10.7664 9.93137 10.1623V9.4162C9.39258 9.28506 8.84686 9.18423 8.29679 9.11418C7.74289 9.04383 7.18513 9.0082 6.62678 9.0075C5.43632 9.0075 4.56589 9.23847 3.97967 9.71822C3.39324 10.198 3.10904 10.8731 3.10904 11.7613C3.10904 12.5963 3.32219 13.2181 3.76631 13.6447C4.19283 14.0888 4.81468 14.3019 5.63186 14.3019ZM19.8984 16.2207C19.5785 16.2207 19.3654 16.1675 19.2233 16.043C19.0812 15.9365 18.9567 15.6877 18.8502 15.3503L14.6752 1.61677C14.5683 1.26131 14.5151 1.03034 14.5151 0.906053C14.5151 0.62185 14.6572 0.461724 14.9416 0.461724H16.6827C17.0201 0.461724 17.2513 0.51517 17.3756 0.639456C17.5177 0.746137 17.6243 0.994919 17.7308 1.33236L20.7156 13.0939L23.4872 1.33236C23.576 0.977104 23.6827 0.746137 23.8246 0.639456C23.9669 0.532985 24.2157 0.461934 24.5355 0.461934H25.9568C26.2942 0.461934 26.5254 0.51517 26.6673 0.639456C26.8096 0.746137 26.9339 0.994919 27.0049 1.33236L29.8121 13.236L32.8855 1.33236C32.992 0.977104 33.1165 0.746137 33.2408 0.639456C33.3829 0.532985 33.6139 0.461934 33.9337 0.461934H35.5859C35.8703 0.461934 36.0302 0.604035 36.0302 0.906053C36.0302 0.994919 36.0124 1.08378 35.9946 1.19026C35.9768 1.29694 35.9414 1.43904 35.8703 1.63458L31.5884 15.3679C31.4819 15.7234 31.3576 15.9543 31.2153 16.0608C31.0732 16.1675 30.8423 16.2385 30.5405 16.2385H29.0126C28.6749 16.2385 28.4439 16.1853 28.3016 16.0608C28.1595 15.9365 28.0352 15.7055 27.9642 15.3503L25.2102 3.89081L22.4742 15.3323C22.3856 15.6877 22.2789 15.9187 22.1368 16.043C21.9947 16.1675 21.7459 16.2207 21.4263 16.2207H19.8982H19.8984ZM42.7283 16.7005C41.8044 16.7005 40.8805 16.5938 39.9923 16.3806C39.1038 16.1675 38.4112 15.9363 37.9492 15.6701C37.6648 15.51 37.4693 15.3325 37.3984 15.1726C37.3292 15.0157 37.2929 14.8464 37.2917 14.675V13.7689C37.2917 13.3959 37.4338 13.2181 37.7004 13.2181C37.8092 13.2185 37.9172 13.2366 38.0203 13.2716C38.1267 13.3072 38.2867 13.3781 38.4644 13.4491C39.0919 13.7251 39.747 13.9336 40.4186 14.071C41.1145 14.2122 41.8228 14.2836 42.5329 14.2841C43.6521 14.2841 44.5228 14.0888 45.1268 13.6979C45.7308 13.307 46.0507 12.7386 46.0507 12.0101C46.0507 11.5127 45.8908 11.104 45.5709 10.7664C45.2511 10.4289 44.6471 10.1269 43.7766 9.84251L41.2004 9.04313C39.9034 8.63444 38.9441 8.0304 38.3577 7.23082C37.7715 6.44905 37.4695 5.57863 37.4695 4.65476C37.4695 3.90862 37.6294 3.25114 37.9492 2.68253C38.2688 2.11412 38.6954 1.61677 39.2283 1.22589C39.7613 0.817187 40.3654 0.51517 41.0761 0.302018C41.7866 0.0888657 42.5327 0 43.3145 0C43.7054 0 44.1141 0.0178151 44.505 0.0710506C44.9137 0.124286 45.2867 0.195337 45.6598 0.266387C46.015 0.355253 46.3527 0.444119 46.6725 0.5508C46.9924 0.657271 47.2409 0.763952 47.4187 0.870423C47.6674 1.01273 47.845 1.15483 47.9516 1.31475C48.0583 1.45685 48.1116 1.65219 48.1116 1.90097V2.73597C48.1116 3.10904 47.9695 3.30459 47.7029 3.30459C47.5608 3.30459 47.3298 3.23333 47.028 3.09123C46.015 2.62929 44.878 2.39833 43.6167 2.39833C42.604 2.39833 41.8044 2.55824 41.2536 2.89589C40.703 3.23333 40.4186 3.74871 40.4186 4.47703C40.4186 4.97459 40.5963 5.4009 40.9516 5.73854C41.307 6.07598 41.9643 6.41363 42.906 6.71565L45.4288 7.51523C46.7079 7.92393 47.6318 8.49233 48.1826 9.22066C48.7334 9.94919 49 10.7842 49 11.7081C49 12.472 48.8399 13.1649 48.5379 13.7689C48.2182 14.373 47.7917 14.906 47.2409 15.3325C46.6901 15.7766 46.0329 16.0964 45.2689 16.3274C44.4693 16.5762 43.6343 16.7005 42.7283 16.7005Z" fill="#F4F4F4"/>
</svg>
