<svg width="28" height="28" viewBox="0 0 28 28" fill="none" xmlns="http://www.w3.org/2000/svg">
<path d="M20.5882 13.1765C18.6225 13.1765 16.7373 13.9573 15.3473 15.3473C13.9573 16.7373 13.1765 18.6225 13.1765 20.5882C13.1765 22.5539 13.9573 24.4392 15.3473 25.8291C16.7373 27.2191 18.6225 28 20.5882 28C22.5539 28 24.4392 27.2191 25.8291 25.8291C27.2191 24.4392 28 22.5539 28 20.5882C28 18.6225 27.2191 16.7373 25.8291 15.3473C24.4392 13.9573 22.5539 13.1765 20.5882 13.1765ZM14.8235 20.5882C14.8235 19.5177 15.1216 18.4682 15.6845 17.5575C16.2473 16.6469 17.0526 15.9109 18.0102 15.4321C18.9677 14.9533 20.0397 14.7507 21.1059 14.8468C22.1722 14.943 23.1906 15.3341 24.047 15.9765L15.9765 24.047C15.2261 23.0502 14.8214 21.8359 14.8235 20.5882ZM20.5882 26.3529C19.3406 26.3551 18.1262 25.9503 17.1294 25.2L25.2 17.1294C25.8423 17.9859 26.2335 19.0043 26.3296 20.0705C26.4258 21.1368 26.2231 22.2087 25.7443 23.1663C25.2656 24.1238 24.5296 24.9291 23.6189 25.492C22.7082 26.0548 21.6588 26.3529 20.5882 26.3529ZM24.7059 2.47059C24.7059 2.25217 24.6191 2.04271 24.4647 1.88826C24.3102 1.73382 24.1008 1.64706 23.8823 1.64706C23.6639 1.64706 23.4545 1.73382 23.3 1.88826C23.1456 2.04271 23.0588 2.25217 23.0588 2.47059V5.7647C23.0588 6.41994 22.7985 7.04835 22.3352 7.51167C21.8719 7.975 21.2435 8.23529 20.5882 8.23529H19.7647C19.7652 7.12061 19.3887 6.03851 18.6965 5.1648C18.0043 4.29109 17.037 3.67711 15.9518 3.42259C16.2911 2.89223 16.4722 2.27623 16.4706 1.64706V0.823529C16.4706 0.605116 16.3838 0.395648 16.2294 0.241206C16.0749 0.0867646 15.8655 0 15.6471 0C15.4286 0 15.2192 0.0867646 15.0647 0.241206C14.9103 0.395648 14.8235 0.605116 14.8235 0.823529V1.64706C14.8235 2.08389 14.65 2.50282 14.3411 2.8117C14.0322 3.12059 13.6133 3.29412 13.1765 3.29412C12.7396 3.29412 12.3207 3.12059 12.0118 2.8117C11.7029 2.50282 11.5294 2.08389 11.5294 1.64706V0.823529C11.5294 0.605116 11.4426 0.395648 11.2882 0.241206C11.1338 0.0867646 10.9243 0 10.7059 0C10.4875 0 10.278 0.0867646 10.1236 0.241206C9.96911 0.395648 9.88235 0.605116 9.88235 0.823529V1.64706C9.88216 2.27631 10.0622 2.89244 10.4012 3.42259C9.31593 3.67711 8.34864 4.29109 7.65643 5.1648C6.96422 6.03851 6.58777 7.12061 6.58823 8.23529H5.7647C5.10946 8.23529 4.48106 7.975 4.01773 7.51167C3.55441 7.04835 3.29412 6.41994 3.29412 5.7647V2.47059C3.29412 2.25217 3.20735 2.04271 3.05291 1.88826C2.89847 1.73382 2.689 1.64706 2.47059 1.64706C2.25217 1.64706 2.04271 1.73382 1.88826 1.88826C1.73382 2.04271 1.64706 2.25217 1.64706 2.47059V5.7647C1.64706 6.85677 2.08088 7.90411 2.85309 8.67632C3.6253 9.44853 4.67264 9.88235 5.7647 9.88235H6.58823V12.3529H0.823529C0.605116 12.3529 0.395648 12.4397 0.241206 12.5941C0.0867646 12.7486 0 12.9581 0 13.1765C0 13.3949 0.0867646 13.6043 0.241206 13.7588C0.395648 13.9132 0.605116 14 0.823529 14H6.58823V16.4706H5.7647C4.67264 16.4706 3.6253 16.9044 2.85309 17.6766C2.08088 18.4488 1.64706 19.4962 1.64706 20.5882V23.8823C1.64706 24.1008 1.73382 24.3102 1.88826 24.4647C2.04271 24.6191 2.25217 24.7059 2.47059 24.7059C2.689 24.7059 2.89847 24.6191 3.05291 24.4647C3.20735 24.3102 3.29412 24.1008 3.29412 23.8823V20.5882C3.29412 19.933 3.55441 19.3046 4.01773 18.8413C4.48106 18.3779 5.10946 18.1176 5.7647 18.1176H6.58823C6.59149 19.7428 7.19739 21.309 8.28872 22.5132C9.38005 23.7174 10.8792 24.474 12.4962 24.6367C11.8619 23.3813 11.5308 21.9947 11.5294 20.5882C11.5326 18.3295 12.3785 16.1533 13.9017 14.4854C15.4248 12.8176 17.5156 11.7782 19.7647 11.5706V9.88235H20.5882C21.6803 9.88235 22.7276 9.44853 23.4998 8.67632C24.272 7.90411 24.7059 6.85677 24.7059 5.7647V2.47059Z" fill="#FF7262"/>
</svg>
