<svg width="32" height="32" viewBox="0 0 32 32" fill="none" xmlns="http://www.w3.org/2000/svg">
<path opacity="0.2" d="M31.7908 13.0532L25.2642 6.5265L19.7893 1.05183C19.3117 0.571669 18.3164 0 17.4741 0C16.7495 0 16.039 0.145886 15.5802 0.421157L5.47504 5.47492L0.421282 16.0012C0.240018 16.3847 0 17.0506 0 17.4741C0 18.394 0.404781 19.3327 1.05183 20.0009L6.09609 25.01C6.2161 25.1582 6.35736 25.3088 6.52437 25.4758L6.73376 25.6852L7.36431 26.3158L12.8392 31.7907L13.0486 32.0001H26.311V26.3159H31.9953V13.2625L31.7907 13.0531L31.7908 13.0532Z" fill="url(#paint0_radial_17_62)"/>
<defs>
<radialGradient id="paint0_radial_17_62" cx="0" cy="0" r="1" gradientUnits="userSpaceOnUse" gradientTransform="translate(15.9977 15.9983) scale(15.9989 15.9989)">
<stop stop-color="white" stop-opacity="0.1"/>
<stop offset="1" stop-color="white" stop-opacity="0"/>
</radialGradient>
</defs>
</svg>
