<svg width="24" height="24" viewBox="0 0 24 24" fill="none" xmlns="http://www.w3.org/2000/svg">
<path d="M7.91713 24.0001C16.1149 24.0001 15.603 20.4451 15.603 20.4451L15.5939 16.7621H7.77083V15.6563H18.7009C18.7009 15.6563 23.9467 16.2512 23.9467 7.97952C23.9467 -0.292068 19.3681 0.00128688 19.3681 0.00128688H16.6356V3.83955C16.6356 3.83955 16.7829 8.41816 12.1301 8.41816H4.37108C4.37108 8.41816 0.0118589 8.34773 0.0118589 12.6313V19.714C0.0118589 19.714 -0.650085 24.0001 7.917 24.0001H7.91713ZM12.2307 21.5235C12.0458 21.5237 11.8628 21.4874 11.6919 21.4167C11.5211 21.3461 11.3659 21.2424 11.2352 21.1117C11.1045 20.981 11.0008 20.8258 10.9302 20.6549C10.8595 20.4841 10.8232 20.301 10.8234 20.1162C10.8232 19.9313 10.8595 19.7482 10.9301 19.5774C11.0008 19.4065 11.1044 19.2513 11.2351 19.1206C11.3659 18.9898 11.5211 18.8862 11.6919 18.8155C11.8627 18.7448 12.0458 18.7085 12.2307 18.7087C12.4156 18.7085 12.5986 18.7448 12.7695 18.8155C12.9403 18.8862 13.0955 18.9898 13.2262 19.1205C13.3569 19.2513 13.4606 19.4065 13.5313 19.5773C13.6019 19.7481 13.6382 19.9312 13.6381 20.116C13.6382 20.3009 13.6019 20.484 13.5313 20.6548C13.4606 20.8256 13.3569 20.9808 13.2262 21.1116C13.0955 21.2423 12.9403 21.3459 12.7695 21.4166C12.5986 21.4873 12.4156 21.5236 12.2307 21.5234V21.5235Z" fill="url(#paint0_linear_17_37)"/>
<defs>
<linearGradient id="paint0_linear_17_37" x1="4.58052" y1="4.93898" x2="21.7658" y2="21.1848" gradientUnits="userSpaceOnUse">
<stop stop-color="#FFE052"/>
<stop offset="1" stop-color="#FFC331"/>
</linearGradient>
</defs>
</svg>
