<svg width="24" height="24" viewBox="0 0 24 24" fill="none" xmlns="http://www.w3.org/2000/svg">
<path d="M16.0297 0C7.83193 0 8.34379 3.55503 8.34379 3.55503L8.35289 7.23814H16.1758V8.34391H5.24573C5.24573 8.34391 0 7.74898 0 16.0204C0 24.2922 4.57861 23.9988 4.57861 23.9988H7.3111V20.1604C7.3111 20.1604 7.16379 15.5818 11.8166 15.5818H19.5756C19.5756 15.5818 23.9348 15.6522 23.9348 11.3688V4.28626C23.9348 4.28626 24.5969 0 16.0297 0ZM11.7161 2.47682C11.901 2.47666 12.084 2.51294 12.2549 2.58361C12.4257 2.65428 12.5809 2.75794 12.7116 2.88865C12.8423 3.01937 12.946 3.17458 13.0167 3.3454C13.0873 3.51622 13.1236 3.6993 13.1234 3.88417C13.1236 4.06903 13.0873 4.25211 13.0167 4.42293C12.946 4.59375 12.8423 4.74896 12.7116 4.87968C12.5809 5.0104 12.4257 5.11405 12.2549 5.18472C12.084 5.25539 11.901 5.29167 11.7161 5.29151C11.5312 5.29167 11.3482 5.25539 11.1773 5.18472C11.0065 5.11405 10.8513 5.0104 10.7206 4.87968C10.5899 4.74896 10.4862 4.59375 10.4155 4.42293C10.3449 4.25211 10.3086 4.06903 10.3088 3.88417C10.3086 3.6993 10.3449 3.51622 10.4155 3.3454C10.4862 3.17458 10.5899 3.01937 10.7206 2.88865C10.8513 2.75794 11.0065 2.65428 11.1773 2.58361C11.3482 2.51294 11.5312 2.47666 11.7161 2.47682Z" fill="url(#paint0_linear_17_36)"/>
<defs>
<linearGradient id="paint0_linear_17_36" x1="3.10325" y1="2.88937" x2="19.1062" y2="18.7327" gradientUnits="userSpaceOnUse">
<stop stop-color="#387EB8"/>
<stop offset="1" stop-color="#366994"/>
</linearGradient>
</defs>
</svg>
