<svg width="36" height="32" viewBox="0 0 36 32" fill="none" xmlns="http://www.w3.org/2000/svg">
<path d="M29.5717 10.3718C29.1889 10.2405 28.8029 10.1189 28.414 10.007C28.4794 9.74004 28.5395 9.47633 28.5929 9.21726C29.4693 4.96294 28.8963 1.53558 26.9394 0.407129C25.0631 -0.674679 21.9946 0.453351 18.8955 3.15042C18.5901 3.41671 18.2915 3.69067 17.9999 3.97204C17.8047 3.78493 17.606 3.60146 17.404 3.42172C14.1561 0.537929 10.9005 -0.677489 8.94571 0.454194C7.07109 1.53937 6.51599 4.76133 7.30501 8.79325C7.38351 9.19256 7.47214 9.58982 7.57083 9.98464C7.11001 10.1156 6.66534 10.2549 6.23978 10.4033C2.43182 11.731 0 13.8116 0 15.9697C0 18.1987 2.61067 20.4343 6.57683 21.79C6.89837 21.8994 7.22259 22.0008 7.54919 22.0941C7.44312 22.5194 7.34895 22.9475 7.2668 23.378C6.51459 27.3399 7.102 30.4857 8.97156 31.564C10.9025 32.6776 14.1434 31.5331 17.2991 28.7745C17.555 28.5502 17.8052 28.3196 18.0496 28.0829C18.3654 28.3875 18.6896 28.6833 19.0218 28.9699C22.0787 31.6003 25.0977 32.6624 26.9654 31.5812C28.8945 30.4644 29.5216 27.0849 28.7075 22.9734C28.6434 22.6512 28.5715 22.3307 28.4919 22.0121C28.7195 21.9447 28.9429 21.8753 29.1606 21.803C33.2839 20.437 35.9666 18.2284 35.9666 15.9697C35.9666 13.8037 33.4562 11.7091 29.5717 10.3718ZM28.6775 20.3447C28.4808 20.4098 28.279 20.4726 28.0733 20.5337C27.6181 19.0926 27.0039 17.5604 26.2521 15.9772C26.9695 14.4317 27.5601 12.919 28.0025 11.4874C28.3705 11.5939 28.7275 11.7061 29.0717 11.8246C32.4 12.9704 34.4301 14.6644 34.4301 15.9697C34.4301 17.36 32.2376 19.165 28.6775 20.3447ZM27.2003 23.2718C27.5602 25.0898 27.6115 26.7336 27.3731 28.0187C27.159 29.1734 26.7282 29.9432 26.1955 30.2515C25.0621 30.9076 22.6382 30.0548 20.024 27.8052C19.7149 27.5388 19.4134 27.2638 19.1196 26.9805C20.1331 25.8722 21.146 24.5837 22.1345 23.1526C23.8732 22.9984 25.5159 22.746 27.0056 22.4017C27.0773 22.6901 27.1423 22.9802 27.2003 23.2718ZM12.2618 30.1382C11.1544 30.5292 10.2724 30.5404 9.73922 30.233C8.60473 29.5787 8.13309 27.0528 8.77641 23.6646C8.85288 23.2642 8.94045 22.866 9.039 22.4705C10.5122 22.7965 12.1429 23.0308 13.8858 23.1722C14.881 24.5725 15.9231 25.8595 16.9733 26.9866C16.7501 27.2025 16.5216 27.413 16.2881 27.6177C14.8926 28.8375 13.4942 29.7029 12.2618 30.1382ZM7.0739 20.3361C5.32011 19.7366 3.87175 18.9576 2.87901 18.1075C1.98687 17.3436 1.53659 16.5851 1.53659 15.9697C1.53659 14.66 3.48904 12.9895 6.74556 11.8542C7.14077 11.7165 7.55439 11.5866 7.9836 11.4646C8.43375 12.9286 9.0241 14.4592 9.73655 16.0071C9.01483 17.5778 8.41604 19.1329 7.96154 20.6142C7.66343 20.5288 7.36746 20.4361 7.0739 20.3361ZM8.81294 8.49807C8.13702 5.04373 8.5859 2.43798 9.71562 1.78397C10.9188 1.0874 13.5795 2.08056 16.3839 4.57068C16.5668 4.73343 16.7467 4.89947 16.9235 5.06874C15.8785 6.19087 14.8461 7.46838 13.8596 8.8604C12.1681 9.01719 10.5489 9.26896 9.06021 9.60629C8.96849 9.23906 8.88604 8.86959 8.81294 8.49821V8.49807ZM24.3273 12.3291C23.9757 11.7217 23.611 11.122 23.2336 10.5303C24.3811 10.6755 25.4806 10.8681 26.5131 11.1035C26.2032 12.0971 25.8169 13.1358 25.3621 14.2007C25.0296 13.57 24.6847 12.946 24.3273 12.3291ZM18.0006 6.16684C18.7092 6.93464 19.419 7.7918 20.1171 8.72188C18.7009 8.65499 17.2824 8.65471 15.8662 8.72103C16.565 7.79953 17.2808 6.9435 18.0006 6.16684ZM11.6332 12.3396C11.2804 12.9516 10.9418 13.5717 10.6179 14.1995C10.1705 13.1383 9.78769 12.0949 9.47509 11.0872C10.5013 10.8577 11.5956 10.67 12.7358 10.5275C12.3542 11.1228 11.9865 11.7269 11.6332 12.3395V12.3396ZM12.7686 21.5212C11.5905 21.3897 10.4798 21.2117 9.45388 20.9883C9.77139 19.9627 10.1627 18.897 10.6197 17.8131C10.9449 18.4414 11.2849 19.0619 11.6393 19.6741C12.0037 20.3035 12.3811 20.92 12.7686 21.5212ZM18.043 25.8808C17.3147 25.0951 16.5883 24.2259 15.879 23.291C16.5677 23.318 17.2697 23.3318 17.9833 23.3318C18.7164 23.3318 19.4411 23.3153 20.1544 23.2836C19.454 24.2353 18.7469 25.1058 18.043 25.8808ZM25.3765 17.7578C25.8573 18.8536 26.2625 19.9137 26.5842 20.9217C25.5415 21.1597 24.4156 21.3513 23.2292 21.4937C23.6094 20.891 23.9775 20.2809 24.3334 19.6636C24.6952 19.0361 25.043 18.4007 25.3765 17.7578ZM23.0025 18.8959C22.4577 19.8423 21.8822 20.7708 21.2771 21.6798C20.1809 21.7575 19.0822 21.796 17.9833 21.7955C16.864 21.7955 15.7753 21.7606 14.7269 21.6926C14.106 20.7857 13.5195 19.8556 12.9689 18.9044H12.969C12.421 17.9581 11.9091 16.9914 11.4344 16.0064C11.9079 15.0211 12.4182 14.0539 12.9644 13.107L12.9643 13.1071C13.5102 12.1599 14.092 11.2338 14.7082 10.3308C15.7778 10.2499 16.8747 10.2077 17.9832 10.2077H17.9833C19.0969 10.2077 20.1951 10.2503 21.2644 10.3318C21.8744 11.2335 22.4525 12.1564 22.9974 13.0988C23.5454 14.0437 24.0625 15.0061 24.5479 15.9846C24.0675 16.9731 23.552 17.9441 23.0025 18.8959ZM26.172 1.73817C27.3763 2.43278 27.8447 5.23382 27.088 8.90705C27.0397 9.14139 26.9855 9.38009 26.9265 9.62216C25.4341 9.27767 23.8138 9.02155 22.1173 8.86237C21.1291 7.45504 20.105 6.17555 19.077 5.06789C19.3465 4.80819 19.6223 4.55522 19.9043 4.30922C22.5596 1.99851 25.0413 1.08614 26.172 1.73817ZM17.9833 12.758C19.757 12.758 21.195 14.196 21.195 15.9697C21.195 17.7434 19.757 19.1814 17.9833 19.1814C16.2096 19.1814 14.7716 17.7434 14.7716 15.9697C14.7716 14.196 16.2096 12.758 17.9833 12.758Z" fill="#00D8FF"/>
</svg>
