<svg width="13" height="7" viewBox="0 0 13 7" fill="none" xmlns="http://www.w3.org/2000/svg">
<path d="M0.5 4.25H4.25M6.5 6.5V0.5H8.75C9.14782 0.5 9.52936 0.658036 9.81066 0.93934C10.092 1.22064 10.25 1.60218 10.25 2V2.75C10.25 3.14782 10.092 3.52936 9.81066 3.81066C9.52936 4.09196 9.14782 4.25 8.75 4.25H6.5M12.5 0.5V6.5M4.25 6.5V2.375C4.25 1.87772 4.05246 1.40081 3.70083 1.04917C3.34919 0.697544 2.87228 0.5 2.375 0.5C1.87772 0.5 1.40081 0.697544 1.04917 1.04917C0.697544 1.40081 0.5 1.87772 0.5 2.375V6.5" stroke="#F4F4F4" stroke-linecap="round" stroke-linejoin="round"/>
</svg>
