<svg width="25" height="28" viewBox="0 0 25 28" fill="none" xmlns="http://www.w3.org/2000/svg">
<path d="M24.2309 21.3696L12.9949 27.7324V22.7841L19.9979 18.9277L24.2309 21.3696ZM25 20.6757V7.37972L20.8908 9.75159V18.3037L25 20.6757ZM0.769129 21.3695L12.0052 27.7272V22.7788L5.00218 18.9277L0.769129 21.3696V21.3695ZM0 20.6757V7.37972L4.10934 9.75159V18.3037L0 20.6757ZM0.478827 6.51917L12.0052 0.000111294V4.78727L4.62034 8.84805L4.5611 8.88034L0.478827 6.51906V6.51917ZM24.5159 6.51917L12.9949 0V4.78715L20.3744 8.85329L20.4335 8.88558L24.5159 6.51895V6.51917Z" fill="#8ED6FB"/>
</svg>
