<svg width="54" height="32" viewBox="0 0 54 32" fill="none" xmlns="http://www.w3.org/2000/svg">
<path fill-rule="evenodd" clip-rule="evenodd" d="M48.7477 0H4.98921C2.22001 0 -0.0216812 2.26374 0.000158232 5.01089V21.7143C0.000158232 24.4835 2.24206 26.7254 5.01126 26.7254H25.7365L35.2093 32L33.0552 26.7254H48.7477C51.5169 26.7254 53.7586 24.4835 53.7586 21.7143V5.01089C53.7586 2.24169 51.5169 0 48.7477 0ZM4.06629 3.8681C3.451 3.9122 2.98943 4.13185 2.68158 4.54953C2.37394 4.94495 2.26411 5.45041 2.33005 6.02202C3.62677 14.2639 4.8355 19.8241 5.95645 22.7034C6.39597 23.7582 6.90142 24.2638 7.49487 24.2199C8.418 24.1538 9.51691 22.8791 10.8136 20.3957C11.4948 18.989 12.5499 16.8792 13.9782 14.0659C15.1651 18.2198 16.7915 21.3407 18.8354 23.4287C19.407 24.0219 20.0005 24.2857 20.5717 24.2418C21.0773 24.1977 21.473 23.9341 21.7367 23.4505C21.9564 23.0331 22.0443 22.5494 22.0005 22.0001C21.8686 20.0001 22.0664 17.2089 22.6157 13.6263C23.1871 9.93401 23.8904 7.27463 24.7476 5.69232C24.9234 5.36263 24.9893 5.03294 24.9675 4.63731C24.9234 4.13185 24.7037 3.71439 24.286 3.38469C23.8686 3.055 23.407 2.90108 22.9015 2.94497C22.2642 2.98906 21.7806 3.29671 21.4509 3.91199C20.0882 6.3956 19.1212 10.4176 18.5498 15.9999C17.7147 13.8901 17.0116 11.4069 16.4618 8.48378C16.2204 7.18707 15.6267 6.57157 14.6597 6.63751C14.0003 6.68161 13.4509 7.12113 13.0112 7.95628L8.19814 17.1209C7.40688 13.934 6.65972 10.044 5.9785 5.45062C5.82457 4.30762 5.18724 3.78011 4.06629 3.8681ZM46.418 5.45062C47.9785 5.78031 49.1433 6.61546 49.9346 7.99996C50.6378 9.18685 50.9894 10.6154 50.9894 12.3298C50.9894 14.5936 50.4182 16.6595 49.2752 18.5495C47.9564 20.7475 46.2422 21.8464 44.1104 21.8464C43.7366 21.8464 43.3412 21.8023 42.9235 21.7143C41.3632 21.3846 40.1982 20.5497 39.4069 19.165C38.7036 17.9562 38.3521 16.5056 38.3521 14.8132C38.3521 12.5495 38.9235 10.4836 40.0663 8.61545C41.4071 6.41765 43.1213 5.31874 45.2313 5.31874C45.6049 5.31874 46.0005 5.36284 46.418 5.45062ZM45.4951 17.3405C46.3082 16.6154 46.8575 15.5386 47.1654 14.0879C47.2532 13.5825 47.3191 13.0331 47.3191 12.4617C47.3191 11.8242 47.1872 11.1429 46.9235 10.4615C46.5938 9.60453 46.1543 9.14275 45.6267 9.03313C44.8357 8.8792 44.0665 9.31872 43.3412 10.3958C42.7477 11.2309 42.3739 12.11 42.1763 13.0111C42.0663 13.5165 42.0224 14.0661 42.0224 14.6154C42.0224 15.2528 42.1543 15.9342 42.418 16.6154C42.7477 17.4726 43.1872 17.9342 43.7147 18.044C44.2641 18.1538 44.8575 17.9121 45.4951 17.3405ZM36.1543 7.99996C35.363 6.61546 34.1762 5.78031 32.6377 5.45062C32.2201 5.36263 31.8246 5.31874 31.4508 5.31874C29.341 5.31874 27.6268 6.41765 26.286 8.61566C25.143 10.4836 24.5718 12.5495 24.5718 14.8132C24.5718 16.5058 24.9234 17.9562 25.6266 19.165C26.4179 20.5497 27.5827 21.3846 29.1432 21.7143C29.5607 21.8023 29.9563 21.8462 30.3301 21.8462C32.462 21.8462 34.1762 20.7475 35.4949 18.5495C36.6377 16.6595 37.2091 14.5934 37.2091 12.3298C37.2091 10.6154 36.8574 9.18685 36.1543 8.00017V7.99996ZM33.3849 14.0881C33.0773 15.5388 32.5277 16.6156 31.7146 17.3409C31.0773 17.9123 30.484 18.154 29.9345 18.0444C29.407 17.9344 28.9672 17.4728 28.6378 16.6156C28.374 15.9344 28.2421 15.253 28.2421 14.6156C28.2421 14.0663 28.286 13.5167 28.3961 13.0113C28.5937 12.1102 28.9672 11.2311 29.5607 10.396C30.2862 9.31893 31.0554 8.87941 31.8465 9.03313C32.374 9.14317 32.8135 9.60474 33.1432 10.4617C33.4069 11.1432 33.5388 11.8246 33.5388 12.4619C33.5388 13.0331 33.4947 13.5827 33.3849 14.0881Z" fill="#AC67FF"/>
</svg>
