<svg width="23" height="27" viewBox="0 0 23 27" fill="none" xmlns="http://www.w3.org/2000/svg">
<path d="M22.998 13.0354C22.998 11.339 22.3878 10.1647 21.8657 9.25042L21.7057 8.99035C21.0715 7.97008 20.5173 7.07385 20.5173 6.02958C20.5173 4.76925 21.4736 3.59294 22.8219 3.59294C22.862 3.59294 22.9 3.59695 22.938 3.59895L23 3.60495C20.4717 1.28262 17.1626 -0.00416241 13.7296 1.01156e-05C11.4543 -0.0011586 9.21453 0.563801 7.21203 1.64398C5.20953 2.72416 3.50725 4.28561 2.2586 6.18762C2.57868 6.19762 2.88476 6.20562 3.14283 6.20562C4.5772 6.20562 6.79978 6.03158 6.79978 6.03158C7.53997 5.98757 7.62799 7.07385 6.8878 7.16187C6.8878 7.16187 6.14561 7.2499 5.31739 7.29191L10.3187 22.1638L13.3195 13.1494L11.1789 7.28991C10.4407 7.24589 9.74054 7.15987 9.74054 7.15987C9.00035 7.11586 9.08837 5.98357 9.82657 6.02758C9.82657 6.02758 12.0952 6.20162 13.4435 6.20162C14.8799 6.20162 17.1045 6.02758 17.1045 6.02758C17.8447 5.98357 17.9307 7.07185 17.1905 7.15987C17.1905 7.15987 16.4463 7.24589 15.6201 7.28991L20.5814 22.0477L21.9497 17.4726L22.0577 17.1265C22.5979 15.406 22.996 14.1357 22.996 13.0334L22.998 13.0354ZM1.14396e-05 13.7296C-0.000125279 16.3077 0.725557 18.8339 2.09401 21.0189C3.46247 23.2039 5.41842 24.9595 7.73802 26.0848L1.18632 8.14013C0.401777 9.89898 -0.00247927 11.8037 1.14396e-05 13.7296Z" fill="#F4F4F4"/>
</svg>
